<svg xmlns="http://www.w3.org/2000/svg" version="1.1" xmlns:xlink="http://www.w3.org/1999/xlink" xmlns:svgjs="http://svgjs.dev/svgjs" width="1000" height="1000" viewBox="0 0 1000 1000"><rect width="1000" height="1000" fill="#ffffff"></rect><g transform="matrix(0.7,0,0,0.7,149.5757576209619,395.90128975524465)"><svg viewBox="0 0 396 118" data-background-color="#ffffff" preserveAspectRatio="xMidYMid meet" height="297" width="1000" xmlns="http://www.w3.org/2000/svg" xmlns:xlink="http://www.w3.org/1999/xlink"><g id="tight-bounds" transform="matrix(1,0,0,1,0.23999997442729182,0.08440872695524604)"><svg viewBox="0 0 395.52 117.83118172790465" height="117.83118172790465" width="395.52"><g><svg viewBox="0 0 395.52 117.83118172790465" height="117.83118172790465" width="395.52"><g><svg viewBox="0 0 395.52 117.83118172790465" height="117.83118172790465" width="395.52"><g id="textblocktransform"><svg viewBox="0 0 395.52 117.83118172790465" height="117.83118172790465" width="395.52" id="textblock"><g><svg viewBox="0 0 395.52 117.83118172790465" height="117.83118172790465" width="395.52"><g><svg viewBox="0 0 395.52 117.83118172790465" height="117.83118172790465" width="395.52"><g transform="matrix(1,0,0,1,0,0)"><svg width="395.52" viewBox="2.2699999809265137 -42.189998626708984 147.5 43.94999694824219" height="117.83118172790465" data-palette-color="#755bb4"><path d="M29.13-14.09L29.13-14.09Q29.13-15.04 28.55-15.36 27.98-15.67 26.88-15.67L26.88-15.67 15.55-15.67 15.55-17.43 26.88-17.43Q30.88-17.43 30.88-14.09L30.88-14.09Q30.88-12.21 29.79-11.38 28.69-10.55 26.88-10.55L26.88-10.55 15.55-10.55 15.55-12.3 26.88-12.3Q29.13-12.3 29.13-14.09ZM14.58-28.13L14.58 0 12.82 0 12.82-29.88 26.88-29.88Q28.54-29.88 29.71-28.87 30.88-27.86 30.88-26.34L30.88-26.34Q30.88-24.34 29.79-23.45 28.69-22.56 26.88-22.56L26.88-22.56 15.55-22.56 15.55-24.32 26.88-24.32Q29.13-24.32 29.13-26.34L29.13-26.34Q29.13-27.17 28.49-27.65 27.86-28.13 26.88-28.13L26.88-28.13 14.58-28.13ZM15.55-19.04L15.55-20.8 26.88-20.8Q29.3-20.8 30.97-22.25 32.64-23.71 32.64-26.34L32.64-26.34Q32.64-28.47 30.9-30.05 29.15-31.64 26.88-31.64L26.88-31.64 11.06-31.64 11.06 0 9.3 0 9.3-33.4 26.88-33.4Q29.88-33.4 32.14-31.29 34.4-29.17 34.4-26.34L34.4-26.34Q34.4-24.12 33.36-22.46 32.32-20.8 30.57-19.9L30.57-19.9Q34.4-18.53 34.4-14.33L34.4-14.33Q34.4-11.01 32.2-9.02 30-7.03 26.88-7.03L26.88-7.03 15.55-7.03 15.55-8.79 26.88-8.79Q29.3-8.79 30.97-10.24 32.64-11.69 32.64-14.33L32.64-14.33Q32.64-16.11 31.37-17.48 30.1-18.85 27.64-19.07L27.64-19.07Q27.39-19.04 26.88-19.04L26.88-19.04 15.55-19.04ZM37.92-26.34L37.92-26.34Q37.92-22.92 35.5-20.17L35.5-20.17Q37.92-17.48 37.92-14.33L37.92-14.33Q37.92-11.28 36.39-8.78 34.86-6.27 32.34-4.9 29.81-3.52 26.88-3.52L26.88-3.52 15.55-3.52 15.55-5.27 26.88-5.27Q30.69-5.27 33.42-7.82 36.16-10.38 36.16-14.33L36.16-14.33Q36.16-15.75 35.44-17.47 34.72-19.19 33.45-20.09L33.45-20.09Q36.16-22.63 36.16-26.34L36.16-26.34Q36.16-29.91 33.37-32.53 30.59-35.16 26.88-35.16L26.88-35.16 7.54-35.16 7.54 0 5.79 0 5.79-36.91 26.88-36.91Q29.79-36.91 32.34-35.49 34.89-34.06 36.4-31.6 37.92-29.15 37.92-26.34ZM37.5-20.07L37.5-20.07Q39.67-22.97 39.67-26.34L39.67-26.34Q39.67-29.64 37.93-32.48 36.18-35.33 33.23-37 30.27-38.67 26.88-38.67L26.88-38.67 4.03-38.67 4.03 0 2.27 0 2.27-40.43 26.88-40.43Q30.74-40.43 34.09-38.53 37.45-36.62 39.44-33.36 41.43-30.1 41.43-26.34L41.43-26.34Q41.43-22.75 39.4-20.04L39.4-20.04Q41.43-17.24 41.43-14.33L41.43-14.33Q41.43-11.06 40.26-8.34 39.09-5.62 37.1-3.81 35.11-2 32.47-1 29.83 0 26.88 0L26.88 0 15.55 0 15.55-1.76 26.88-1.76Q29.44-1.76 31.79-2.72 34.13-3.69 35.86-5.35 37.6-7.01 38.64-9.35 39.67-11.69 39.67-14.33L39.67-14.33Q39.67-15.5 39.12-17.15 38.57-18.8 37.5-20.07ZM59.62-27.05Q56.78-24.22 56.78-20.21 56.78-16.21 59.62-13.38 62.45-10.55 66.45-10.55 70.46-10.55 73.29-13.38 76.12-16.21 76.12-20.21 76.12-24.22 73.29-27.05 70.46-29.88 66.45-29.88 62.45-29.88 59.62-27.05ZM55.93-15.78Q55.03-17.9 55.03-20.21 55.03-22.53 55.93-24.65 56.83-26.76 58.37-28.3 59.91-29.83 62.02-30.74 64.13-31.64 66.45-31.64 68.77-31.64 70.88-30.74 73-29.83 74.53-28.3 76.07-26.76 76.98-24.65 77.88-22.53 77.88-20.21 77.88-17.9 76.98-15.78 76.07-13.67 74.53-12.13 73-10.6 70.88-9.69 68.77-8.79 66.45-8.79 64.13-8.79 62.02-9.69 59.91-10.6 58.37-12.13 56.83-13.67 55.93-15.78ZM55.04-26.83Q53.27-23.8 53.27-20.21 53.27-16.63 55.04-13.6 56.81-10.57 59.84-8.8 62.86-7.03 66.45-7.03 70.04-7.03 73.07-8.8 76.1-10.57 77.87-13.6 79.64-16.63 79.64-20.21 79.64-23.8 77.87-26.83 76.1-29.86 73.07-31.63 70.04-33.4 66.45-33.4 62.86-33.4 59.84-31.63 56.81-29.86 55.04-26.83ZM53.51-12.72Q51.51-16.16 51.51-20.21 51.51-24.27 53.51-27.71 55.52-31.15 58.96-33.15 62.4-35.16 66.45-35.16 70.51-35.16 73.95-33.15 77.39-31.15 79.39-27.71 81.39-24.27 81.39-20.21 81.39-16.16 79.39-12.72 77.39-9.28 73.95-7.28 70.51-5.27 66.45-5.27 62.4-5.27 58.96-7.28 55.52-9.28 53.51-12.72ZM51.07-26.71Q49.75-23.61 49.75-20.21 49.75-16.82 51.07-13.72 52.39-10.62 54.62-8.39 56.86-6.15 59.96-4.83 63.06-3.52 66.45-3.52 69.85-3.52 72.95-4.83 76.05-6.15 78.28-8.39 80.52-10.62 81.83-13.72 83.15-16.82 83.15-20.21 83.15-23.61 81.83-26.71 80.52-29.81 78.28-32.04 76.05-34.28 72.95-35.6 69.85-36.91 66.45-36.91 63.06-36.91 59.96-35.6 56.86-34.28 54.62-32.04 52.39-29.81 51.07-26.71ZM50.47-10.96Q48-15.21 48-20.21 48-25.22 50.47-29.47 52.95-33.72 57.2-36.19 61.45-38.67 66.45-38.67 71.46-38.67 75.71-36.19 79.95-33.72 82.43-29.47 84.91-25.22 84.91-20.21 84.91-15.21 82.43-10.96 79.95-6.71 75.71-4.24 71.46-1.76 66.45-1.76 61.45-1.76 57.2-4.24 52.95-6.71 50.47-10.96ZM47.84-28.06Q46.24-24.32 46.24-20.21 46.24-16.11 47.84-12.37 49.44-8.62 52.15-5.91 54.86-3.2 58.6-1.6 62.35 0 66.45 0 70.55 0 74.3-1.6 78.05-3.2 80.76-5.91 83.47-8.62 85.07-12.37 86.67-16.11 86.67-20.21 86.67-24.32 85.07-28.06 83.47-31.81 80.76-34.52 78.05-37.23 74.3-38.83 70.55-40.43 66.45-40.43 62.35-40.43 58.6-38.83 54.86-37.23 52.15-34.52 49.44-31.81 47.84-28.06ZM46.23-11.68Q44.48-15.75 44.48-20.21 44.48-24.68 46.23-28.75 47.97-32.81 50.91-35.75 53.85-38.7 57.92-40.44 61.98-42.19 66.45-42.19 70.92-42.19 74.99-40.44 79.05-38.7 81.99-35.75 84.93-32.81 86.68-28.75 88.43-24.68 88.43-20.21 88.43-15.75 86.68-11.68 84.93-7.62 81.99-4.68 79.05-1.73 74.99 0.01 70.92 1.76 66.45 1.76 61.98 1.76 57.92 0.01 53.85-1.73 50.91-4.68 47.97-7.62 46.23-11.68ZM124.36 0L124.36-21.12 126.12-21.12 126.12 0 124.36 0ZM131.39 0L131.39-21.12 133.15-21.12 133.15 0 131.39 0ZM127.88 0L127.88-21.12 129.63-21.12 129.63 0 127.88 0ZM120.84-21.12L122.6-21.12 122.6 0Q117.96 1.76 112.98 1.76L112.98 1.76Q108.66 1.76 104.71 0.17 100.75-1.42 97.75-4.24 94.75-7.06 92.95-11.22 91.16-15.38 91.16-20.21L91.16-20.21Q91.16-24.68 92.9-28.75 94.65-32.81 97.59-35.75 100.53-38.7 104.6-40.44 108.66-42.19 113.13-42.19L113.13-42.19Q118.7-42.19 123.48-39.6 128.27-37.01 131.29-32.57L131.29-32.57 129.83-31.62Q127.05-35.69 122.64-38.06 118.23-40.43 113.13-40.43L113.13-40.43Q109.03-40.43 105.28-38.83 101.53-37.23 98.82-34.52 96.11-31.81 94.51-28.06 92.91-24.32 92.91-20.21L92.91-20.21Q92.91-15.8 94.56-11.96 96.21-8.13 98.96-5.54 101.7-2.95 105.34-1.48 108.98 0 112.91 0L112.91 0Q117.04 0 120.84-1.29L120.84-1.29 120.84-2.98Q117.21-1.76 113.2-1.76L113.2-1.76Q110.3-1.76 107.55-2.58 104.8-3.39 102.47-4.99 100.14-6.59 98.4-8.8 96.65-11.01 95.66-13.95 94.67-16.89 94.67-20.21L94.67-20.21Q94.67-25.22 97.15-29.47 99.63-33.72 103.88-36.19 108.12-38.67 113.13-38.67L113.13-38.67Q117.82-38.67 121.85-36.49 125.87-34.3 128.41-30.57L128.41-30.57 126.95-29.61Q124.65-32.98 121-34.95 117.35-36.91 113.13-36.91L113.13-36.91Q109.74-36.91 106.64-35.6 103.54-34.28 101.3-32.04 99.07-29.81 97.75-26.71 96.43-23.61 96.43-20.21L96.43-20.21Q96.43-17.16 97.32-14.49 98.21-11.82 99.79-9.83 101.36-7.84 103.46-6.41 105.56-4.98 108.04-4.25 110.52-3.52 113.13-3.52L113.13-3.52Q117.18-3.52 120.84-4.88L120.84-4.88 120.84-6.64Q117.23-5.25 113.3-5.25L113.3-5.25Q110.32-5.25 107.61-6.26 104.9-7.28 102.79-9.13 100.68-10.99 99.43-13.87 98.19-16.75 98.19-20.21L98.19-20.21Q98.19-24.27 100.19-27.71 102.19-31.15 105.63-33.15 109.08-35.16 113.13-35.16L113.13-35.16Q116.91-35.16 120.17-33.4 123.43-31.64 125.48-28.61L125.48-28.61 124.02-27.66Q122.21-30.3 119.34-31.85 116.47-33.4 113.13-33.4L113.13-33.4Q109.54-33.4 106.51-31.63 103.49-29.86 101.72-26.83 99.95-23.8 99.95-20.21L99.95-20.21Q99.95-17.72 100.65-15.58 101.36-13.43 102.61-11.87 103.85-10.3 105.52-9.2 107.2-8.11 109.13-7.56 111.05-7.01 113.13-7.01L113.13-7.01Q117.26-7.01 120.84-8.64L120.84-8.64 120.84-10.33Q117.38-8.79 113.35-8.79L113.35-8.79Q111.03-8.79 108.98-9.5 106.93-10.21 105.28-11.57 103.63-12.94 102.67-15.17 101.7-17.41 101.7-20.21L101.7-20.21Q101.7-22.53 102.61-24.65 103.51-26.76 105.05-28.3 106.59-29.83 108.7-30.74 110.81-31.64 113.13-31.64L113.13-31.64Q116.04-31.64 118.53-30.29 121.02-28.93 122.58-26.61L122.58-26.61 121.14-25.66Q119.82-27.61 117.71-28.75 115.6-29.88 113.13-29.88L113.13-29.88Q109.13-29.88 106.29-27.05 103.46-24.22 103.46-20.21L103.46-20.21Q103.46-17.75 104.27-15.86 105.07-13.96 106.48-12.83 107.88-11.69 109.6-11.12 111.32-10.55 113.3-10.55L113.3-10.55Q117.35-10.55 120.84-12.23L120.84-12.23 120.84-21.12ZM148.01 0L148.01-40.43 149.77-40.43 149.77 0 148.01 0ZM144.5 0L144.5-40.43 146.26-40.43 146.26 0 144.5 0ZM140.98 0L140.98-40.43 142.74-40.43 142.74 0 140.98 0ZM137.47 0L137.47-40.43 139.23-40.43 139.23 0 137.47 0Z" opacity="1" transform="matrix(1,0,0,1,0,0)" fill="#755bb4" class="wordmark-text-0" data-fill-palette-color="primary" id="text-0"></path></svg></g></svg></g></svg></g></svg></g></svg></g><g></g></svg></g><defs></defs></svg><rect width="395.52" height="117.83118172790465" fill="none" stroke="none" visibility="hidden"></rect></g></svg></g></svg>